<svg xmlns="http://www.w3.org/2000/svg" width="53.955" height="30.129" viewBox="0 0 53.955 30.129"><path d="M-25.839-22.506V0h6.864c4.125,0,7.821-1.881,7.821-6.039,0-2.97-2.145-5.28-5.643-5.775a4.987,4.987,0,0,0,3.729-4.95c0-3.6-2.772-5.742-6.963-5.742Zm2.442,2.178h2.871c3.333,0,4.884,1.188,4.884,3.8,0,2.31-1.584,4.026-5.28,4.026H-23.4Zm0,18.15v-8.184h3.6c4.257,0,6.072,1.518,6.072,4.125,0,2.838-2.112,4.059-5.709,4.059ZM-7.821-22.506V0h2.244V-22.506ZM-2.178-7.293A7.488,7.488,0,0,0,5.544.3,7.507,7.507,0,0,0,13.3-7.392,7.464,7.464,0,0,0,5.61-15.114,7.475,7.475,0,0,0-2.178-7.293Zm2.31-.1c0-3.465,2.343-5.709,5.313-5.709a5.352,5.352,0,0,1,5.544,5.676c0,3.267-2.178,5.709-5.412,5.709A5.331,5.331,0,0,1,.132-7.392Zm27.984-7.425H22.209c-4.026,0-6.3,2.079-6.3,5.115a4.777,4.777,0,0,0,3.465,4.719C17.655-4.521,16.83-3.8,16.83-2.64c0,.759.561,1.452,1.683,1.947-2.838.627-3.828,2.079-3.828,3.993,0,2.475,2.211,4.323,6.666,4.323,4.059,0,6.765-1.65,6.765-4.488,0-1.782-.924-3.531-4.653-4.158-2.871-.429-4.488-.693-4.488-1.881,0-1.023,1.353-1.287,3.2-1.65C25.014-5.115,26.73-6.9,26.73-9.471a4.057,4.057,0,0,0-1.947-3.6h3.333ZM17.952-9.636a3.2,3.2,0,0,1,3.4-3.234,3.141,3.141,0,0,1,3.3,3.168,3.152,3.152,0,0,1-3.366,3.3A3.18,3.18,0,0,1,17.952-9.636ZM16.83,3.234c0-1.749,1.749-2.64,4.092-2.64,3.135,0,5.016.891,5.016,2.607,0,1.683-1.683,2.607-4.554,2.607C18.48,5.808,16.83,4.917,16.83,3.234Z" transform="translate(25.839 22.506)" fill="#e4e4e4"/></svg>