<svg xmlns="http://www.w3.org/2000/svg" width="96.327" height="53.9" viewBox="0 0 96.327 53.9"><path d="M31.416-53.207c-15.785,0-27.8,11.55-27.8,27.181C3.619-12.936,13.09.693,31.262.693A39.514,39.514,0,0,0,49.665-3.7v-6.391A33.674,33.674,0,0,1,31.416-4.7c-13.4,0-21.791-9.7-21.791-21.483,0-11.55,8.47-21.637,21.868-21.637A36.1,36.1,0,0,1,49.28-42.812v-6.237A43.188,43.188,0,0,0,31.416-53.207ZM76.461.539H77.77L99.946-52.514H94.171L77.154-11.627h-.077L59.983-52.514H54.208Z" transform="translate(99.946 0.693) rotate(180)" fill="#515151"/></svg>