<svg xmlns="http://www.w3.org/2000/svg" width="44.688" height="153.664" viewBox="0 0 44.688 153.664"><path d="M-74.945-33.418V0h19.4V-3.381H-71.27V-33.418ZM-51.817,0h3.332V-22h-3.332Zm0-30.772v4.263h3.332v-4.263Zm9.8-2.646V0h3.332V-33.418ZM-35.353-22l8.869,17.542L-34.03,11.27h3.577L-14.479-22h-3.626L-24.671-8.183-31.58-22ZM2.965-33.418V0h19.4V-3.381H6.64V-33.418ZM33.051-22.442A9.563,9.563,0,0,0,25.8-19.551v3.626c2.156-2.2,4.263-3.381,6.958-3.381,3.087,0,4.361,1.323,4.361,4.41v1.715c-8.281,1.911-12,3.92-12,8.232A5.333,5.333,0,0,0,30.7.441c2.156,0,3.92-.588,6.419-2.7v.588A2,2,0,0,0,39.372.441a7.64,7.64,0,0,0,4.361-1.813v-2.5a6.19,6.19,0,0,1-2.6,1.47c-.49,0-.686-.294-.686-.98V-15.533C40.45-19.8,37.9-22.442,33.051-22.442ZM28.494-5.488c0-2.989,3.234-4.753,8.624-5.782v6.86c-1.862,1.813-3.332,2.4-4.9,2.4A3.5,3.5,0,0,1,28.494-5.488ZM53.238.441h1.127l6.762-16.905L68.036.441h1.078L78.719-22H75.142L68.576-6.566,62.353-22h-2.4L53.729-6.566,47.162-22H43.585Z" transform="translate(11.27 74.945) rotate(90)" fill="#b7b7b7"/></svg>