<svg xmlns="http://www.w3.org/2000/svg" xmlns:xlink="http://www.w3.org/1999/xlink" width="52.871" height="72.662" viewBox="0 0 52.871 72.662"><defs><linearGradient id="a" x1="0.5" x2="0.5" y2="1" gradientUnits="objectBoundingBox"><stop offset="0" stop-color="#9c3"/><stop offset="1" stop-color="#030"/></linearGradient><radialGradient id="b" cx="0.125" cy="0.93" r="0.762" gradientTransform="matrix(0.652, -0.924, 1.24, 0.301, -1.11, 0.766)" gradientUnits="objectBoundingBox"><stop offset="0" stop-color="#c39"/><stop offset="1" stop-color="#f9c"/></radialGradient></defs><g transform="translate(-115.361 -293.305)"><g transform="translate(115.361 293.305)"><path d="M514.2,249.678c-3.66-3.917-8.56-6.364-12.836-9.537a24.93,24.93,0,0,1-9.082-11.664c-4.013-11.781-.5-24.09,7.943-33.185a15.793,15.793,0,0,0,4.915-9.145c1.213,2.608,1.757,5.519,2.848,8.184a18.511,18.511,0,0,0,4.188,6.372,67.814,67.814,0,0,1,5.49,5.114,34.728,34.728,0,0,1,7.414,15.778C526.689,230.5,516.218,251.844,514.2,249.678Z" transform="translate(-490.622 -186.147)" fill="url(#a)"/><path d="M506.693,220.559a32.5,32.5,0,0,0-1.729-4.472c-.689-1.456-1.516-2.828-2.256-4.183a16.647,16.647,0,0,1-2.765-8.325,22.077,22.077,0,0,1,1.83-8.883,16.247,16.247,0,0,0-3.539,8.845,13.026,13.026,0,0,0,.527,4.918,24.2,24.2,0,0,0,2.01,4.442,63.988,63.988,0,0,1,4.3,8.193,47.83,47.83,0,0,1,2.717,8.844,24.79,24.79,0,0,0-1.093-9.378Z" transform="translate(-485.599 -180.471)" fill="#fff"/><g transform="translate(18.543 14.16)"><path d="M510.853,253.343a24.668,24.668,0,0,1-1.584-15.141,16.639,16.639,0,0,1,4.868-8.96c6.75-5.04,15.972-8.281,20.785-14.7A7.664,7.664,0,0,0,536.444,207c-.977-2.4-4.251-4.524-4.5-7.068a5.848,5.848,0,0,1,.187-3.116c.376-.5.557-1.165-.358-1.123s-.815,1.071-2.021,1.809c-4.815,2.943-10.389,2.329-16.109,2.764-4.953.369-9.9,1.777-10.921,5.807-.86,3.4,1.361,8.486,1.664,10.16a61.56,61.56,0,0,1,1.165,10.165c.028,3.243-.556,6.474-.486,9.72a42.569,42.569,0,0,0,2.7,18.076Z" transform="translate(-502.521 -195.693)" fill="url(#b)"/><g transform="translate(0.651 1.811)"><path d="M513.45,198.851a18.355,18.355,0,0,0-3.384.26,14.8,14.8,0,0,0-1.652.376,9.5,9.5,0,0,0-1.552.587,7.784,7.784,0,0,0-1.331.832,7.488,7.488,0,0,0-1.065,1.01,6.158,6.158,0,0,0-1.294,2.341c-.028.1-.062.208-.087.313l-.063.314c-.048.21-.06.421-.088.631,0,.1-.013.21-.017.316a2.53,2.53,0,0,0,0,.316,5.628,5.628,0,0,0,.023.629,13.8,13.8,0,0,0,.389,2.482c.106.408.223.812.358,1.213s.273.8.424,1.2c.073.2.153.4.231.594s.158.394.24.591c.166.394.333.784.466,1.183l.075-.008a7.62,7.62,0,0,0-.166-1.241q-.06-.308-.13-.612c-.045-.2-.09-.408-.14-.609l-.288-1.213-.279-1.21c-.18-.805-.364-1.607-.472-2.416a9.922,9.922,0,0,1-.063-2.428,3.93,3.93,0,0,1,1.09-2.286,5.259,5.259,0,0,1,1.143-.885,10.345,10.345,0,0,1,1.378-.666q.719-.29,1.477-.526c.506-.158,1.025-.294,1.552-.418q.4-.09.8-.166l.809-.156c.542-.1,1.09-.19,1.642-.286Z" transform="translate(-502.912 -195.408)" fill="#fff"/><path d="M524.96,207.021a2.693,2.693,0,0,0-.085-.278l-.093-.276a4.368,4.368,0,0,0-.248-.544,7.719,7.719,0,0,0-.665-1.018c-.5-.652-1.047-1.261-1.576-1.874a15.555,15.555,0,0,1-1.442-1.874,5.019,5.019,0,0,1-.78-2.048,15.079,15.079,0,0,1-.208-2.193v-.135l-.1.1a3.832,3.832,0,0,1-.516.439,3.817,3.817,0,0,0,.5-.316,7.425,7.425,0,0,0-.1,1.015q-.016.557.008,1.113a4.319,4.319,0,0,0,.176,1.126,5.781,5.781,0,0,0,.458,1.08,32.324,32.324,0,0,0,2.932,3.835,8.243,8.243,0,0,1,.635.953,4.014,4.014,0,0,1,.238.5c.058.166.135.333.185.512a5.937,5.937,0,0,1,.241,2.126,5.4,5.4,0,0,1-.06.539c-.008.09-.032.18-.048.27l-.052.27a8.6,8.6,0,0,1-.333,1.067,10.173,10.173,0,0,1-.464,1.05c-.176.346-.374.687-.581,1.028a9.759,9.759,0,0,0,1.383-2,8.312,8.312,0,0,0,.459-1.08,6.447,6.447,0,0,0,.263-1.118A5.568,5.568,0,0,0,524.96,207.021Z" transform="translate(-492.07 -196.781)" fill="#fff"/><path d="M508.884,236.68c-.246-.582-.469-1.175-.666-1.772s-.374-1.2-.534-1.8c-.078-.3-.148-.607-.223-.91l-.19-.915c-.06-.306-.108-.612-.166-.918s-.085-.616-.13-.923-.063-.617-.1-.925l-.047-.464-.027-.464c-.05-.619-.037-1.241-.05-1.864a32.228,32.228,0,0,1,.291-3.74c-.166.616-.359,1.231-.469,1.855-.145.622-.213,1.25-.3,1.877-.06.627-.111,1.258-.118,1.887l-.013.473v.473c.012.314.01.631.04.945s.04.629.075.943.068.627.11.942.1.626.153.937.118.624.19.933a23.714,23.714,0,0,0,1.017,3.318l-.183.05c-.409-1.253-.807-2.509-1.143-3.774q-.571-2.106-.938-4.24l-.09-.534-.077-.534c-.055-.356-.09-.714-.133-1.072-.08-.715-.145-1.433-.181-2.153s-.072-1.443-.1-2.163l-.063-1.085c-.027-.361-.048-.722-.078-1.083-.035.363-.06.725-.09,1.087l-.075,1.085q-.087,1.085-.131,2.175c-.025.727-.018,1.454,0,2.181.017.363.035.727.067,1.09l.045.544.058.544a34.036,34.036,0,0,0,.779,4.318c.349,1.428.772,2.842,1.246,4.245l.141.418.552-.153,1.208-.333.481-.133Z" transform="translate(-501.906 -181.383)" fill="#fff"/><path d="M515.366,216.708a1.018,1.018,0,0,0-.018-.235l-.035-.233a6.859,6.859,0,0,0-.559-1.8,9.955,9.955,0,0,0-1-1.664,15.989,15.989,0,0,0-1.288-1.511c-.468-.479-.957-.943-1.471-1.388s-1.043-.87-1.561-1.29-1.018-.832-1.481-1.271a4.5,4.5,0,0,1-.333-.333c-.1-.116-.223-.22-.321-.333s-.21-.225-.3-.343-.2-.231-.273-.353a4.826,4.826,0,0,1-.759-1.514,4,4,0,0,1-.106-1.651,3.815,3.815,0,0,1,.649-1.641,4.018,4.018,0,0,0-1.371,3.384,4.631,4.631,0,0,0,.569,1.779,2.079,2.079,0,0,0,.118.211l.128.206c.083.14.185.27.279.4s.2.261.3.391c.053.063.1.13.158.191l.166.186a19.95,19.95,0,0,0,1.421,1.413c.492.451.987.887,1.452,1.331s.923.887,1.343,1.346a15.514,15.514,0,0,1,1.165,1.4,9.2,9.2,0,0,1,.913,1.476,6.371,6.371,0,0,1,.546,1.546l.042.2c.013.065.017.131.027.2.013.131.037.265.04.4a4.87,4.87,0,0,1-.028.794,5.387,5.387,0,0,1-.449,1.574c-.058.13-.123.253-.193.389s-.138.268-.213.4-.145.266-.221.4-.15.265-.228.4q-.466.789-1,1.564a33.473,33.473,0,0,1-2.339,3.033,20.7,20.7,0,0,0,3.061-2.727q.677-.735,1.273-1.512c.2-.258.389-.521.572-.785.093-.131.181-.266.271-.4s.18-.276.261-.418a6.466,6.466,0,0,0,.426-.882,5.794,5.794,0,0,0,.266-.918,4.866,4.866,0,0,0,.1-.94A2.733,2.733,0,0,0,515.366,216.708Z" transform="translate(-501.44 -193.881)" fill="#fff"/><path d="M526.7,206.686a11.374,11.374,0,0,1-1.9,1.165,14.344,14.344,0,0,1-2.163.845c-.374.117-.76.215-1.146.306l-.586.126c-.2.038-.4.068-.594.1a22.862,22.862,0,0,1-2.424.27l-.306.02-.153.01h-.155l-.617.02c-.206.012-.413,0-.619,0h-.621c-1.664-.017-3.328-.145-5.006-.281a25.294,25.294,0,0,0,4.935.9,23.782,23.782,0,0,0,2.584.063l.333-.01a2.29,2.29,0,0,0,.333-.017l.651-.05.166-.013.166-.02.325-.042.324-.042c.108-.013.215-.035.321-.052.213-.04.428-.073.641-.116l.632-.143c.416-.11.832-.221,1.231-.364a11.963,11.963,0,0,0,2.254-1.033,8.6,8.6,0,0,0,1.81-1.416,6.027,6.027,0,0,0,.676-.832q.145-.216.266-.436a3.128,3.128,0,0,0,.2-.453,8.4,8.4,0,0,1-1.556,1.491Z" transform="translate(-497.935 -191.195)" fill="#fff"/><path d="M516.813,201.54a1.353,1.353,0,0,0-1.516-.043.985.985,0,0,0-.118.091l-.012.012a11.2,11.2,0,0,0-1.854,2.268,17.068,17.068,0,0,0-1.243,2.373,18.578,18.578,0,0,0-.852,2.424,9.878,9.878,0,0,0-.411,2.461,10.6,10.6,0,0,1,.925-2.359,20.394,20.394,0,0,1,1.331-2.245,18.6,18.6,0,0,1,1.644-2.09,11.363,11.363,0,0,1,2.015-1.774.666.666,0,0,0,.09-1.118Z" transform="translate(-497.671 -193.791)" fill="#fff"/></g></g></g></g></svg>