<svg xmlns="http://www.w3.org/2000/svg" width="98.426" height="98.426" viewBox="0 0 98.426 98.426"><path d="M2.618-23.188V0h2.55V-10.438h3.6c4.964,0,7.888-2.04,7.888-6.358,0-4.046-2.822-6.392-7.446-6.392Zm2.55,2.244H8.7c3.774,0,5.338,1.462,5.338,4.08,0,2.652-1.428,4.182-5.338,4.182H5.168ZM17.986-7.514A7.715,7.715,0,0,0,25.942.306a7.735,7.735,0,0,0,7.99-7.922,7.69,7.69,0,0,0-7.922-7.956A7.7,7.7,0,0,0,17.986-7.514Zm2.38-.1c0-3.57,2.414-5.882,5.474-5.882A5.514,5.514,0,0,1,31.552-7.65c0,3.366-2.244,5.882-5.576,5.882A5.493,5.493,0,0,1,20.366-7.616Zm24.072-7.956c-1.53,0-3.094,1.19-4.828,3.978v-3.672H37.3V0H39.61V-8.772c.612-2.924,2.618-4.59,4.114-4.59A4.7,4.7,0,0,1,46.58-11.9l1.258-2.006A5.061,5.061,0,0,0,44.438-15.572Zm4.556,2.38h2.958v8.16c0,3.842,1.258,5.338,4.216,5.338a7.382,7.382,0,0,0,3.5-.918V-2.788a6.3,6.3,0,0,1-3.2.986c-1.9,0-2.21-1.36-2.21-3.23v-8.16H58.99v-2.074H54.264v-4.692l-2.312,1.326v3.366H48.994ZM68.408-23.46c-3.2,0-5.2,2.346-5.2,6.6v1.6H60.962v2.074h2.244V0h2.312V-13.192h3.23v-2.074h-3.23V-16.83c0-3.162,1.054-4.454,3.23-4.454a5.288,5.288,0,0,1,1.938.34V-23.12A7.822,7.822,0,0,0,68.408-23.46ZM70.04-7.514A7.715,7.715,0,0,0,78,.306a7.735,7.735,0,0,0,7.99-7.922,7.69,7.69,0,0,0-7.922-7.956A7.7,7.7,0,0,0,70.04-7.514Zm2.38-.1c0-3.57,2.414-5.882,5.474-5.882A5.514,5.514,0,0,1,83.606-7.65c0,3.366-2.244,5.882-5.576,5.882A5.493,5.493,0,0,1,72.42-7.616ZM89.488-23.188V0H91.8V-23.188ZM96.288,0H98.6V-15.266H96.288Zm0-21.352v2.958H98.6v-2.958ZM102.1-7.514a7.715,7.715,0,0,0,7.956,7.82,7.735,7.735,0,0,0,7.99-7.922,7.69,7.69,0,0,0-7.922-7.956A7.7,7.7,0,0,0,102.1-7.514Zm2.38-.1c0-3.57,2.414-5.882,5.474-5.882a5.514,5.514,0,0,1,5.712,5.848c0,3.366-2.244,5.882-5.576,5.882A5.493,5.493,0,0,1,104.482-7.616Z" transform="translate(14.738 100.061) rotate(-45)" fill="#9e9e9e"/></svg>