<svg xmlns="http://www.w3.org/2000/svg" width="123.646" height="123.646" viewBox="0 0 123.646 123.646"><path d="M2.618-23.188V0h2.55V-10.438h3.6c4.964,0,7.888-2.04,7.888-6.358,0-4.046-2.822-6.392-7.446-6.392Zm2.55,2.244H8.7c3.774,0,5.338,1.462,5.338,4.08,0,2.652-1.428,4.182-5.338,4.182H5.168Zm21.726,5.372c-1.53,0-3.094,1.19-4.828,3.978v-3.672H19.754V0h2.312V-8.772c.612-2.924,2.618-4.59,4.114-4.59A4.7,4.7,0,0,1,29.036-11.9l1.258-2.006A5.061,5.061,0,0,0,26.894-15.572Zm3.944,8.058A7.715,7.715,0,0,0,38.794.306a7.735,7.735,0,0,0,7.99-7.922,7.69,7.69,0,0,0-7.922-7.956A7.7,7.7,0,0,0,30.838-7.514Zm2.38-.1c0-3.57,2.414-5.882,5.474-5.882A5.514,5.514,0,0,1,44.4-7.65c0,3.366-2.244,5.882-5.576,5.882A5.493,5.493,0,0,1,33.218-7.616ZM47.7,6.12l1.6,1.7c2.448-1.054,3.332-2.584,3.332-6.46V-15.266H50.32V1.5C50.32,4.522,49.4,5.644,47.7,6.12ZM50.32-21.352v2.958h2.312v-2.958ZM69.394-3.774a9.069,9.069,0,0,1-5.474,1.9,5.366,5.366,0,0,1-5.406-5.61v-.238H69.632c-.1-5-2.652-7.854-6.528-7.854-4.25,0-6.97,3.366-6.97,7.888,0,4.9,3.332,7.99,7.48,7.99a9.588,9.588,0,0,0,5.78-1.8ZM58.582-9.18a4.592,4.592,0,0,1,4.488-4.352c2.55,0,3.978,1.632,4.25,4.352Zm21.012-6.392c-4.386,0-7.548,3.128-7.548,8.092,0,3.774,2.38,7.786,7.752,7.786A11.558,11.558,0,0,0,84.082-.51V-2.822a9.491,9.491,0,0,1-3.944.952c-4.046,0-5.712-2.958-5.712-5.78,0-3.06,1.972-5.746,5.3-5.746a7.632,7.632,0,0,1,4.114,1.224v-2.482A10.22,10.22,0,0,0,79.594-15.572Zm6.188,2.38H88.74v8.16C88.74-1.19,90,.306,92.956.306a7.382,7.382,0,0,0,3.5-.918V-2.788a6.3,6.3,0,0,1-3.2.986c-1.9,0-2.21-1.36-2.21-3.23v-8.16h4.726v-2.074H91.052v-4.692L88.74-18.632v3.366H85.782Zm23.188-10V0h7.072c4.25,0,8.058-1.938,8.058-6.222,0-3.06-2.21-5.44-5.814-5.95a5.139,5.139,0,0,0,3.842-5.1c0-3.706-2.856-5.916-7.174-5.916Zm2.516,2.244h2.958c3.434,0,5.032,1.224,5.032,3.91,0,2.38-1.632,4.148-5.44,4.148h-2.55Zm0,18.7v-8.432h3.706c4.386,0,6.256,1.564,6.256,4.25,0,2.924-2.176,4.182-5.882,4.182ZM127.126,0h2.312V-15.266h-2.312Zm0-21.352v2.958h2.312v-2.958Zm14.11,5.78a6.622,6.622,0,0,0-5,2.584v-2.278h-2.312V0h2.312V-10.982a5.213,5.213,0,0,1,4.284-2.652c2.142,0,3.6,1.258,3.6,4.454V0h2.346V-9.282C146.472-13.158,144.67-15.572,141.236-15.572Z" transform="translate(14.545 119.968) rotate(-45)" fill="#a6a6a6"/></svg>