<svg xmlns="http://www.w3.org/2000/svg" width="43.412" height="43.412" viewBox="0 0 43.412 43.412"><g transform="translate(-185 -241)"><ellipse cx="15" cy="14.5" rx="15" ry="14.5" transform="translate(192 248)" fill="#dadada"/><path d="M-19.529-.863l-.385-1.179h-2.079l-.412,1.179h-.855l2.27-5.666h.2l2.106,5.666Zm-1.4-4.2L-21.791-2.6h1.66Zm6.7-1-.317.63a1.9,1.9,0,0,0-1.129-.427,1.7,1.7,0,0,0-1.385.618,2.5,2.5,0,0,0-.507,1.637,2.342,2.342,0,0,0,.5,1.561,1.68,1.68,0,0,0,1.356.591,1.36,1.36,0,0,0,.988-.366V-3.129h-.775v-.649h1.538v2.434a2.29,2.29,0,0,1-.851.418,3.8,3.8,0,0,1-1.061.158,2.275,2.275,0,0,1-1.826-.784,3.1,3.1,0,0,1-.67-2.085,3.005,3.005,0,0,1,.734-2.1,2.548,2.548,0,0,1,1.982-.807A2.072,2.072,0,0,1-14.221-6.063Zm1.545,5.2v-5.59h.763v5.59Zm2.041,0v-5.59h.763v4.9h2.526v.687Zm4.72-4.9v1.553h1.847v.649H-5.915V-1.55h2.533v.687h-3.3v-5.59H-3.34v.687Z" transform="translate(220.19 266.173)" fill="#0b0b0b"/><path d="M898.97-802.683a21.769,21.769,0,0,1-1.97-.952V-813.5a13.862,13.862,0,0,0,10.419,4.712A13.872,13.872,0,0,0,918.256-814h2.187v8.686a21.6,21.6,0,0,1-4.575,2.632,21.574,21.574,0,0,1-8.449,1.706A21.574,21.574,0,0,1,898.97-802.683Z" transform="translate(-700.713 1085.389)" fill="#319fff"/><path d="M892.938-809.336a21.633,21.633,0,0,1-4.652-6.9,21.56,21.56,0,0,1-1.706-8.449q0-.3.008-.6l6.775-3.911,1.234,2.137a13.918,13.918,0,0,0-.2,2.37,13.916,13.916,0,0,0,9.1,13.04l1.591,2.755L898.7-805.2A21.639,21.639,0,0,1,892.938-809.336Z" transform="translate(-701.58 1087.39)" fill="#31e3ff"/><path d="M887.777-823.847a21.964,21.964,0,0,1-.2-2.942,21.573,21.573,0,0,1,1.706-8.449,21.632,21.632,0,0,1,4.652-6.9,21.718,21.718,0,0,1,3.793-3.031l5.982,3.454-1.836,3.18a13.9,13.9,0,0,0-6.472,11.21l-3.413,5.912Z" transform="translate(-702.58 1089.495)" fill="#31ffea"/><path d="M891.089-842.437l.2-.2a21.632,21.632,0,0,1,6.9-4.652A21.56,21.56,0,0,1,906.64-849a21.58,21.58,0,0,1,7.47,1.319l.915,8.709-.747.078a13.813,13.813,0,0,0-7.638-2.293,13.851,13.851,0,0,0-9.878,4.134l-5.05.531Z" transform="translate(-699.934 1090)" fill="#f60d0d"/><path d="M923.435-826.962a13.9,13.9,0,0,0-6.008-10.407l-4.006-6.94,3.516-2.03q.552.2,1.1.429a21.645,21.645,0,0,1,6.9,4.652,21.633,21.633,0,0,1,4.652,6.9,21.489,21.489,0,0,1,1.647,6.836l-6.089,3.516Z" transform="translate(-702.877 1088.615)" fill="#ff8a31"/><path d="M914.262-810.755l.822-1.316a13.913,13.913,0,0,0,8.5-12.8c0-.257-.007-.513-.021-.767l3.121-4.994,4.518,2.824a21.967,21.967,0,0,1,.2,2.938,21.561,21.561,0,0,1-1.706,8.449,21.634,21.634,0,0,1-4.652,6.9,21.732,21.732,0,0,1-3.877,3.084Z" transform="translate(-702.988 1087.581)" fill="#ffb931"/><path d="M906.827-802.5l2.208-6.066a13.84,13.84,0,0,0,9.092-3.68l4.576,1.666-2.348,6.452a21.663,21.663,0,0,1-3.193,1.675,21.493,21.493,0,0,1-5.921,1.561Z" transform="translate(-702.008 1085.157)" fill="#319fff"/></g></svg>