<svg xmlns="http://www.w3.org/2000/svg" viewBox="0 0 724.677 489.976"><g transform="translate(0.886 0.041)"><path d="M546.668,344.392a122.362,122.362,0,0,1-19.2-1.512,120.544,120.544,0,0,1-24-4.68,164.51,164.51,0,0,1-25.949-8.193,176.061,176.061,0,0,1-23.961-12.05A196.068,196.068,0,0,1,418.9,293.812c-17.572-14.1-33.759-31.763-48.111-52.509-3.472-4.708-6.885-9.649-10.146-14.689-7.833,11.9-15.066,22.065-22.109,31.084a284.864,284.864,0,0,1-25.216,28.455c-2.267,2.518-4.665,4.975-7.127,7.3a129.015,129.015,0,0,1-35.638,26.474,139.166,139.166,0,0,1-31.906,14.164,156.131,156.131,0,0,1-34.546,6.263,164.918,164.918,0,0,1-21.466,1.4,171.729,171.729,0,0,1-25.217-1.876,169.181,169.181,0,0,1-70.3-23.225,151.406,151.406,0,0,1-28.335-19.618,136.607,136.607,0,0,1-29.3-31.552,128.035,128.035,0,0,1-17.155-30.055A116.471,116.471,0,0,1,2.8,200.708,121.214,121.214,0,0,1,.01,173.145a133.4,133.4,0,0,1,3.265-27.468,143.8,143.8,0,0,1,9.969-35.855,156.15,156.15,0,0,1,16.772-32.2A158,158,0,0,1,53.73,50.066,150.628,150.628,0,0,1,83.707,24.908,131.765,131.765,0,0,1,119.043,9.059a119.859,119.859,0,0,1,43.7-8.378c1.5,0,3.024.03,4.528.089,1.5-.06,3.031-.089,4.541-.089,3.046,0,6.133.123,9.177.366h.224c6.638,0,13.1.31,19.216.921a156.414,156.414,0,0,1,18.983,3.049,157.155,157.155,0,0,1,27.19,9.114,161.569,161.569,0,0,1,17.87,7.709,175.185,175.185,0,0,1,16.7,9.637,211.369,211.369,0,0,1,30.179,24.1c17.6,14.916,34.343,33.812,51.193,57.768,15.032-21.98,28.9-38.724,43.635-52.691a213.819,213.819,0,0,1,40.465-33.711,129.331,129.331,0,0,1,37.935-17.6,136.679,136.679,0,0,1,25.295-7.056A149.322,149.322,0,0,1,536.086,0c1.5,0,3.025.022,4.53.066C542.108.022,543.632,0,545.146,0A162.685,162.685,0,0,1,579.1,3.639,170.986,170.986,0,0,1,611.753,14.16a169.348,169.348,0,0,1,31.493,15.285,157.432,157.432,0,0,1,27.311,21.422,146.864,146.864,0,0,1,24.076,25.04A131.156,131.156,0,0,1,711.7,106.132a125.036,125.036,0,0,1,11.381,35.944,122.27,122.27,0,0,1,1.421,26.2,125.456,125.456,0,0,1-1.974,29.592,137.489,137.489,0,0,1-8.536,28.247,148.853,148.853,0,0,1-11.985,24.5,156.916,156.916,0,0,1-13.6,21.054,164.128,164.128,0,0,1-16.8,18.759,165.138,165.138,0,0,1-20.195,17.89,159.9,159.9,0,0,1-22.778,14.254,151.137,151.137,0,0,1-31.062,14.2,134.525,134.525,0,0,1-33.284,6.379A128.029,128.029,0,0,1,546.668,344.392ZM540.49,58.356c-23.182,0-44.841,6.283-62.637,18.164a166.327,166.327,0,0,0-24.84,18.992,215,215,0,0,0-20.928,22.36c-12.758,15.592-23.882,32.833-35.1,50.6v.871c.688,1.136,1.369,2.269,2,3.324,12.3,26.377,28.622,49.859,47.189,67.907,21.584,20.98,45.8,34.554,71.985,40.346a99.952,99.952,0,0,0,28.457,4.108c33.814,0,68.226-16.812,92.05-44.959,21.684-25.62,31.292-57.208,26.361-86.665-9.489-59.5-70.769-95.05-124.532-95.05Zm-371.723.54c-35.815,0-71.416,20.86-92.908,54.431-20.293,31.7-24.092,68.672-10.16,98.9,17.372,42.288,64.28,70.7,116.724,70.706h.017a134.631,134.631,0,0,0,23.97-2.128,122.353,122.353,0,0,0,22.944-6.487,105.25,105.25,0,0,0,39.334-26.672,217.769,217.769,0,0,0,16-17.15c4.737-5.628,9.427-11.688,14.34-18.525,9.132-12.709,17.657-26.235,25.9-39.317q1.184-1.879,2.369-3.757l.067.11.042.07c.053.089.107.177.162.266v-.875l-.15.238-.014.023-.024.039-.081.128c-7.965-13.132-15.369-24.32-22.638-34.2a261.557,261.557,0,0,0-26.854-31.466A189.3,189.3,0,0,0,262.475,89.6,157.4,157.4,0,0,0,245.7,77.956a137.7,137.7,0,0,0-18.342-9.234,119.863,119.863,0,0,0-35.411-8.807c-4.948-.484-10.182-.729-15.557-.729h-.187C173.741,58.993,171.239,58.9,168.767,58.9Z" transform="translate(-0.886 -0.041)" fill="#00979c"/><path d="M0,0H120.736V25.153H0Z" transform="translate(118.712 153.41)" fill="#00979c"/><path d="M33.2,100.613V66.405H0v-32.2H33.2V0H65.4V34.208h35.215v32.2H65.4v34.208Z" transform="translate(488.968 115.679)" fill="#00979c"/><path d="M84.462,485.714l-6.439-23.141H37.174l-6.64,23.1H8.683L43.339,368.634H74.144L108.8,485.676Zm-26.6-95.55-15.4,54.447H73.089Z" transform="translate(0.059 2.261)" fill="#00979c"/><path d="M180.36,485.714c-6.2-13.724-11.752-27.759-18.4-41.261-3.853-5.8-11.42-8.069-18.09-7.133-1.056,3.974-.252,8.21-.483,12.3v36.09H121.35V368.67c16.551.382,33.222-.976,49.683,1.2,10.766,1.741,21.994,8.019,25.163,19.127,3.974,11.872,2,27.2-8.653,35a31.764,31.764,0,0,1-14.368,5.976c6.58,2.616,10.585,8.7,13.412,14.871,6.218,11.973,11.54,24.449,17.6,36.462,2.918,2.908,1.157,5.292-2.354,4.407Zm-5.453-82.573c.815-7.445-5.252-14.549-12.657-15.243-6.2-1.348-12.577-.734-18.865-.875v33.051c9.266-.1,20.072,1.016,27.316-6a15.2,15.2,0,0,0,4.206-10.937Z" transform="translate(0.749 2.26)" fill="#00979c"/><path d="M307.539,425.348c0,16.44-3.672,34.359-16.158,46.02-12,11.309-29.228,14.418-45.185,13.985H219.15V368.31c13.724.1,27.447-.221,41.171.211,13.623.734,28.111,5.373,36.563,16.722C305.506,396.6,307.488,411.473,307.539,425.348Zm-23.644,1.439c-.191-11.45-.976-24.57-9.739-33.021-7.335-6.972-17.929-7.214-27.457-7.013h-5.514V466.9c10.061,0,21,.795,29.6-5.433C281.822,453.831,283.854,439.192,283.895,426.786Z" transform="translate(1.349 2.258)" fill="#00979c"/><path d="M407.52,442.451c.322,14.156-4.407,29.812-16.722,37.992-14.156,8.965-32.377,8.874-47.862,3.662-11.641-4.578-19.418-16.47-19.982-28.836-1.539-14.036-.272-28.172-.684-42.258V368.49h22.024c.2,27.84-.433,55.689.392,83.509.755,7.8,6.137,15.967,14.458,16.823,8.431,1.9,19.408.1,23.383-8.562,4.689-10.192,2.515-21.652,3-32.488V368.49H407.56c0,24.64.2,49.391,0,73.961Z" transform="translate(1.981 2.26)" fill="#00979c"/><path d="M428,386.11v-18h73.969v18h-25.79v80.864h25.79v18.179H428V466.974h25.79V386.11Z" transform="translate(2.63 2.257)" fill="#00979c"/><path d="M583.353,485.713c-12.587-28.3-25.6-56.424-37.79-84.9v84.9H525.5V368.67h27.045c11.9,26.642,24.56,52.963,35.889,79.847.664,2.958,2.284,4.548,1.731.614V368.67h20.052V485.713H583.353Z" transform="translate(3.228 2.261)" fill="#00979c"/><path d="M716.574,426.366c.1,17.436-3.562,36.432-16.44,49.129-13.08,12.778-33.876,14.84-50.518,8.572C635.591,478.7,627.451,464.5,624.594,450.4c-3.069-15.615-3.2-32.005.624-47.489,3.632-14.388,12.969-28.212,27.4-33.394,13.482-4.88,29.389-4.336,41.976,2.827,13.673,8.16,19.448,24.348,21.159,39.41a122.115,122.115,0,0,1,.825,14.609Zm-23.282,1.077c-.252-11.52-.6-24.137-7.465-33.927-6.178-8.089-18.593-9.246-27.2-4.628-9.548,5.866-11.8,18.04-12.647,28.353-.634,13.221-.815,27.226,4.92,39.471,3.431,7.616,12.023,11.6,20.123,10.806,8.361,0,15.635-6.057,18.352-13.764C692.669,445.422,693.212,436.3,693.293,427.442Z" transform="translate(3.821 2.246)" fill="#00979c"/><path d="M29.178,16V2.579Q27.11,9.291,25.053,16H22.638Q20.48,9.181,18.322,2.359V16H15.877V0H19.8q2.008,6.4,4.025,12.8Q25.788,6.4,27.76,0h3.833V16ZM6.188,16V4.025H5.581V3.365H0V1.006H1.006V0h13.08V3.365H8.865V16Z" transform="translate(680.563 13.457)" fill="#00979c"/></g></svg>