<svg xmlns="http://www.w3.org/2000/svg" width="223" height="121" viewBox="0 0 223 121"><g transform="translate(-42 -324)"><path d="M3583.294-5876.864l-16.255-20.468-4,6.931h0l-.081-.047a.747.747,0,0,0,.167-.2c.4-.693-.349-2-2.11-3.667a39.776,39.776,0,0,0-7.215-5.181c-4.391-2.533-8.68-4.171-10.926-4.171a1.919,1.919,0,0,0-1.223.313l3.44-5.958-24.234-3.6a.978.978,0,0,1-.829-.774.98.98,0,0,1,.43-1.052l46.875-30.576a1.023,1.023,0,0,0,.22-.194l40.4-48.125a.972.972,0,0,1,.75-.364,1.055,1.055,0,0,1,.849.445.963.963,0,0,1,.107.9l-21.478,59.049a.992.992,0,0,0-.059.286l-3.042,55.883a1,1,0,0,1-1.008.948A.972.972,0,0,1,3583.294-5876.864Zm-2-74.63c-1.1,1.911-.833,4.138.6,4.964a2.357,2.357,0,0,0,1.2.312,4.205,4.205,0,0,0,3.4-2.276c1.1-1.91.835-4.138-.6-4.964a2.345,2.345,0,0,0-1.2-.313A4.209,4.209,0,0,0,3581.295-5951.494Zm-34.513,64.188.056-.471-.42-12.561,11.32,6.849-10.587,5.9h0l6.992-5.534-6.225-3.767-1.079,9.119.01.352.292-.162-.356.283h0Z" transform="translate(-3474.711 6321.311)" fill="#b7b7b7"/><rect width="223" height="121" transform="translate(42 324)" fill="none"/><text transform="translate(136 387)" fill="#b7b7b7" font-size="33" font-family="CarbonRg-Regular, Carbon" letter-spacing="0.409em"><tspan x="0" y="0" xml:space="preserve"> Live</tspan><tspan font-size="22" letter-spacing="0.008em"><tspan x="0" y="28">Deployment</tspan></tspan></text></g></svg>