<svg xmlns="http://www.w3.org/2000/svg" width="255" height="185.507" viewBox="0 0 255 185.507"><g transform="translate(-187 -67.493)"><path d="M18,0H237a18,18,0,0,1,18,18V167a18,18,0,0,1-18,18H18A18,18,0,0,1,0,167V18A18,18,0,0,1,18,0Z" transform="translate(187 68)" fill="#f2f2f2"/><path d="M69.5,0,139,96H0Z" transform="translate(314 113) rotate(90)" fill="rgba(0,0,0,0.07)"/><path d="M1117-1365h-1a15,15,0,0,1-15-15v-152a15,15,0,0,1,15-15h2a15,15,0,0,1,15,15v167Z" transform="translate(-913 1617)" fill="#d44c3d"/><path d="M15,182A15,15,0,0,1,0,167V15A15,15,0,0,1,15,0H32V167a15,15,0,0,1-15,15Z" transform="translate(441 252) rotate(180)" fill="#c5483a"/><path d="M1221.766-1433.37l-.021-.015-108-78.469a15.75,15.75,0,0,1-3.484-22,15.75,15.75,0,0,1,22-3.484l100.981,73.367,101.538-73.772a15.75,15.75,0,0,1,22,3.485,15.751,15.751,0,0,1-3.485,22l-96.476,70.094h0l-23.46,17.045-.081.111Z" transform="translate(-919.004 1608.245)" fill="#d44c3d"/><path d="M1322.789-1361.494h-51.866L1112.562-1514.42l102.935,74.786.013.01.007.005,11.508,8.361.081-.111,23.46-17.045,71.187-51.721v137.641h2l-.963,1Zm-220.3-162.651-.738-.712v-1.172a15.8,15.8,0,0,0,.739,1.884Zm19.971-21.381a15.666,15.666,0,0,0-3.69-.941c.339-.018.669-.026.981-.026h1.38l1.33.965Zm210.638-.764v0l.277-.2h.433C1333.587-1546.435,1333.348-1546.368,1333.1-1546.291Z" transform="translate(-912.755 1614.493)" fill="rgba(0,0,0,0.07)"/></g></svg>