<svg xmlns="http://www.w3.org/2000/svg" viewBox="0 0 140 140"><rect width="140" height="140" rx="1" fill="#fdda3e"/><path d="M23.217-15.336c0,3.834-1.917,8.094-8.449,8.094-5.183,0-8.307-5.467-8.307-5.467L.213-7.455S4.828.852,14.768.852c10.508,0,16.969-6.035,16.969-16.472V-49.7h-8.52ZM67.1-12.993c0,4.047-4.4,5.751-8.662,5.751-7.526,0-11.786-7.455-11.786-7.455l-6.39,5.4S46.008.852,58.433.852c9.372,0,17.324-4.828,17.324-13.845S69.438-25.418,61.841-28.258c-6.816-2.556-10.721-3.905-10.721-8.236,0-3.337,3.337-5.964,7.6-5.964,6.177,0,10.3,5.609,10.3,5.609L74.9-42.671a21.363,21.363,0,0,0-16.188-7.881c-10.011,0-16.259,7.029-16.259,14.058,0,9.23,8.236,13.206,15.549,15.762C63.9-18.673,67.1-17.182,67.1-12.993Z" transform="translate(43 119)" fill="#fff"/></svg>