<svg xmlns="http://www.w3.org/2000/svg" xmlns:xlink="http://www.w3.org/1999/xlink" width="512" height="512" viewBox="0 0 512 512"><defs><linearGradient id="a" x1="0.5" x2="0.5" y2="1" gradientUnits="objectBoundingBox"><stop offset="0" stop-color="#9c3"/><stop offset="1" stop-color="#030"/></linearGradient><radialGradient id="b" cx="0.125" cy="0.93" r="0.762" gradientTransform="matrix(0.652, -0.924, 1.24, 0.301, -1.11, 0.766)" gradientUnits="objectBoundingBox"><stop offset="0" stop-color="#c39"/><stop offset="1" stop-color="#f9c"/></radialGradient></defs><g transform="translate(10.097 0.117)"><g transform="translate(62.299 1.253)"><path d="M656.078,632.011C630.391,604.519,596,587.352,566,565.079a174.962,174.962,0,0,1-63.74-81.86c-28.164-82.679-3.5-169.064,55.742-232.892a110.838,110.838,0,0,0,34.491-64.18c8.512,18.3,12.331,38.735,19.99,57.438a129.909,129.909,0,0,0,29.39,44.716A475.948,475.948,0,0,1,680.4,324.194,243.718,243.718,0,0,1,732.43,434.922C743.743,497.4,670.254,647.211,656.078,632.011Z" transform="translate(-490.622 -186.147)" fill="url(#a)"/><path d="M557.874,376.2a228.123,228.123,0,0,0-12.131-31.383c-4.835-10.22-10.638-19.849-15.834-29.357A116.829,116.829,0,0,1,510.5,257.039,154.94,154.94,0,0,1,523.348,194.7a114.027,114.027,0,0,0-24.835,62.076,91.414,91.414,0,0,0,3.7,34.511,169.879,169.879,0,0,0,14.1,31.172,449.064,449.064,0,0,1,30.16,57.5,335.657,335.657,0,0,1,19.068,62.064,173.987,173.987,0,0,0-7.672-65.816Z" transform="translate(-409.839 -94.868)" fill="#fff"/></g><g transform="translate(192.435 100.625)"><path d="M561,600.284a173.124,173.124,0,0,1-11.116-106.262,116.772,116.772,0,0,1,34.165-62.881c47.371-35.37,112.092-58.117,145.872-103.168a53.788,53.788,0,0,0,10.672-52.909c-6.854-16.862-29.833-31.75-31.607-49.6a41.038,41.038,0,0,1,1.309-21.871c2.638-3.5,3.91-8.174-2.512-7.882s-5.721,7.52-14.187,12.693c-33.791,20.657-72.907,16.348-113.05,19.4-34.761,2.592-69.5,12.471-76.644,40.753-6.036,23.88,9.551,59.553,11.677,71.3a432.02,432.02,0,0,1,8.173,71.336c.2,22.759-3.9,45.436-3.409,68.218a298.747,298.747,0,0,0,18.975,126.86Z" transform="translate(-502.521 -195.693)" fill="url(#b)"/><g transform="translate(4.566 12.706)"><path d="M576.872,198.865a128.822,128.822,0,0,0-23.749,1.822,103.889,103.889,0,0,0-11.6,2.639,66.64,66.64,0,0,0-10.895,4.122,54.628,54.628,0,0,0-9.341,5.838,52.551,52.551,0,0,0-7.473,7.089,43.214,43.214,0,0,0-9.084,16.429c-.2.724-.432,1.46-.608,2.2l-.443,2.207c-.339,1.472-.421,2.955-.619,4.426,0,.736-.093,1.471-.117,2.219a17.739,17.739,0,0,0,0,2.219,39.5,39.5,0,0,0,.164,4.414,96.883,96.883,0,0,0,2.732,17.422c.747,2.861,1.565,5.7,2.51,8.513s1.914,5.617,2.978,8.408c.514,1.389,1.074,2.779,1.623,4.168s1.109,2.768,1.682,4.145c1.167,2.767,2.335,5.5,3.269,8.3l.525-.059a53.532,53.532,0,0,0-1.167-8.711q-.422-2.16-.911-4.3c-.316-1.424-.63-2.861-.981-4.274l-2.02-8.513-1.962-8.489c-1.261-5.651-2.557-11.28-3.316-16.955a69.622,69.622,0,0,1-.443-17.037,27.577,27.577,0,0,1,7.647-16.044,36.912,36.912,0,0,1,8.022-6.212,72.6,72.6,0,0,1,9.669-4.671q5.044-2.032,10.368-3.69c3.549-1.109,7.193-2.067,10.894-2.931q2.78-.63,5.605-1.168t5.674-1.1c3.806-.689,7.648-1.331,11.525-2.009Z" transform="translate(-502.912 -174.705)" fill="#fff"/><path d="M559.354,268.642a18.955,18.955,0,0,0-.6-1.95l-.654-1.939a30.632,30.632,0,0,0-1.739-3.818,54.147,54.147,0,0,0-4.67-7.146c-3.5-4.578-7.346-8.851-11.059-13.148a109.154,109.154,0,0,1-10.123-13.149,35.218,35.218,0,0,1-5.477-14.375,105.8,105.8,0,0,1-1.459-15.39v-.946l-.712.736a26.871,26.871,0,0,1-3.62,3.083,26.764,26.764,0,0,0,3.5-2.218,52.108,52.108,0,0,0-.689,7.123q-.115,3.912.059,7.812a30.315,30.315,0,0,0,1.237,7.905,40.566,40.566,0,0,0,3.211,7.579,226.82,226.82,0,0,0,20.575,26.916,57.8,57.8,0,0,1,4.46,6.691,28.14,28.14,0,0,1,1.671,3.5c.408,1.168.945,2.335,1.3,3.6a41.663,41.663,0,0,1,1.694,14.923,37.886,37.886,0,0,1-.422,3.784c-.058.63-.222,1.261-.338,1.891L555.14,292a60.382,60.382,0,0,1-2.336,7.485,71.432,71.432,0,0,1-3.257,7.368c-1.239,2.429-2.628,4.823-4.076,7.216a68.492,68.492,0,0,0,9.7-14.012,58.317,58.317,0,0,0,3.221-7.579,45.212,45.212,0,0,0,1.846-7.847A39.076,39.076,0,0,0,559.354,268.642Z" transform="translate(-328.534 -196.781)" fill="#fff"/><path d="M535.706,337.214c-1.728-4.087-3.293-8.244-4.671-12.436s-2.627-8.419-3.748-12.658c-.549-2.126-1.039-4.262-1.564-6.387l-1.331-6.423c-.421-2.149-.759-4.3-1.168-6.446s-.6-4.321-.911-6.481-.444-4.332-.678-6.492l-.326-3.258-.187-3.258c-.351-4.344-.258-8.711-.351-13.078a226.272,226.272,0,0,1,2.044-26.25c-1.168,4.321-2.522,8.641-3.293,13.02-1.016,4.367-1.494,8.77-2.125,13.172-.421,4.4-.782,8.828-.83,13.242l-.093,3.316v3.316c.081,2.207.07,4.425.28,6.632s.28,4.414.526,6.621.478,4.4.771,6.609.688,4.39,1.074,6.574.83,4.379,1.331,6.551a166.454,166.454,0,0,0,7.134,23.284l-1.284.35c-2.872-8.793-5.662-17.609-8.021-26.484q-4.006-14.783-6.586-29.753l-.63-3.748L510.532,273c-.385-2.5-.63-5.01-.934-7.52-.56-5.021-1.016-10.054-1.273-15.11s-.5-10.124-.712-15.18l-.444-7.613c-.187-2.534-.339-5.068-.549-7.6-.245,2.546-.42,5.091-.63,7.625l-.526,7.614q-.608,7.613-.922,15.262c-.176,5.1-.129,10.206,0,15.309.117,2.545.245,5.1.467,7.648l.315,3.819.409,3.818a238.87,238.87,0,0,0,5.464,30.3c2.452,10.019,5.418,19.944,8.746,29.788l.993,2.931,3.876-1.074,8.477-2.335,3.374-.934Z" transform="translate(-486.733 50.865)" fill="#fff"/><path d="M576.974,310.342a7.153,7.153,0,0,0-.128-1.647l-.246-1.635a48.137,48.137,0,0,0-3.923-12.646,69.88,69.88,0,0,0-7.006-11.677,112.239,112.239,0,0,0-9.037-10.6c-3.282-3.363-6.714-6.621-10.323-9.739s-7.322-6.107-10.952-9.05-7.146-5.838-10.392-8.921a31.508,31.508,0,0,1-2.336-2.336c-.712-.817-1.565-1.542-2.253-2.335s-1.471-1.576-2.09-2.405-1.378-1.624-1.915-2.476a33.87,33.87,0,0,1-5.325-10.627,28.038,28.038,0,0,1-.746-11.583,26.776,26.776,0,0,1,4.553-11.514,28.2,28.2,0,0,0-9.621,23.751,32.5,32.5,0,0,0,3.994,12.483,14.58,14.58,0,0,0,.83,1.483l.9,1.448c.583.981,1.3,1.892,1.961,2.826s1.4,1.833,2.125,2.744c.373.444.724.911,1.109,1.343l1.168,1.308a139.984,139.984,0,0,0,9.971,9.914c3.456,3.164,6.924,6.224,10.193,9.342s6.48,6.224,9.423,9.447a108.821,108.821,0,0,1,8.174,9.856,64.555,64.555,0,0,1,6.41,10.358,44.719,44.719,0,0,1,3.829,10.848l.293,1.378c.093.455.116.923.187,1.39.093.923.256,1.857.28,2.779a34.184,34.184,0,0,1-.2,5.57,37.8,37.8,0,0,1-3.152,11.047c-.409.911-.864,1.775-1.354,2.732s-.97,1.88-1.495,2.8-1.016,1.869-1.553,2.791-1.051,1.857-1.6,2.779q-3.269,5.535-7.006,10.977a234.952,234.952,0,0,1-16.417,21.288,145.279,145.279,0,0,0,21.484-19.14q4.753-5.161,8.933-10.614c1.413-1.81,2.732-3.655,4.017-5.512.654-.923,1.273-1.869,1.9-2.8s1.261-1.938,1.834-2.931a45.4,45.4,0,0,0,2.99-6.189,40.652,40.652,0,0,0,1.868-6.446,34.172,34.172,0,0,0,.712-6.6A19.169,19.169,0,0,0,576.974,310.342Z" transform="translate(-479.241 -150.143)" fill="#fff"/><path d="M624.732,215.658a79.827,79.827,0,0,1-13.334,8.174,100.664,100.664,0,0,1-15.18,5.932c-2.626.818-5.335,1.506-8.045,2.149l-4.109.887c-1.378.269-2.779.479-4.169.736a160.435,160.435,0,0,1-17.011,1.892l-2.149.14-1.075.07h-1.086l-4.331.14c-1.448.081-2.9,0-4.343,0h-4.355c-11.676-.117-23.353-1.016-35.135-1.974a177.507,177.507,0,0,0,34.632,6.305,166.9,166.9,0,0,0,18.134.444l2.335-.07a16.075,16.075,0,0,0,2.335-.116l4.566-.35,1.167-.094,1.167-.14,2.277-.292,2.277-.292c.759-.093,1.506-.246,2.253-.362,1.495-.28,3-.514,4.5-.817l4.437-1c2.919-.771,5.839-1.553,8.64-2.557a83.956,83.956,0,0,0,15.821-7.252,60.343,60.343,0,0,0,12.7-9.936,42.289,42.289,0,0,0,4.741-5.839q1.015-1.518,1.868-3.059a22,22,0,0,0,1.389-3.176,58.968,58.968,0,0,1-10.917,10.462Z" transform="translate(-422.869 -106.943)" fill="#fff"/><path d="M552.948,203.071a9.493,9.493,0,0,0-10.638-.3,6.927,6.927,0,0,0-.828.642l-.082.082a78.625,78.625,0,0,0-13.008,15.916,119.791,119.791,0,0,0-8.721,16.651,130.388,130.388,0,0,0-5.979,17.014,69.319,69.319,0,0,0-2.883,17.27,74.376,74.376,0,0,1,6.491-16.558,143.1,143.1,0,0,1,9.341-15.753,130.524,130.524,0,0,1,11.535-14.667,79.753,79.753,0,0,1,14.14-12.447,4.672,4.672,0,0,0,.631-7.847Z" transform="translate(-418.61 -148.691)" fill="#fff"/></g></g><rect width="512" height="512" transform="translate(-10.097 -0.117)" fill="none"/></g></svg>