<svg xmlns="http://www.w3.org/2000/svg" viewBox="0 0 396.514 366.233"><g transform="translate(-10 -10)"><path d="M326.623,187.947s-3.036-28.31-31.126-29.1-42.515,21.232-42.515,52.688,15.943,56.621,43.273,56.621S326.623,236.7,326.623,236.7l52.383,3.145s3.084,28.409-18.836,50.084S311.343,315.146,292.553,315s-44.842.294-70.035-25.509S193.049,238.62,193.049,214s4.778-57.245,34.733-81.982c20.358-16.809,41-23,61.637-23,86.169,0,91.957,79.475,91.957,79.475l-54.753-.541Z" transform="translate(-80.991 -43.809)" fill="#a8b9cc"/><g transform="translate(154.28 10)"><path d="M400.942,207.588h28.8l.046,9.992h-1.377q-.673-5.361-3.877-7.255a11.54,11.54,0,0,0-5.369-1.138v26.1q0,2.736.923,3.631t3.842.9v1.258H406.877V239.81q2.8,0,3.728-.908t.921-3.62v-26.1a11.844,11.844,0,0,0-5.369,1.139q-3.433,1.939-3.877,7.255H400.9Z" transform="translate(-400.901 -207.585)" fill="#1b75b3"/><path d="M463.48,239.808a6.384,6.384,0,0,0,2.709-.555,3.092,3.092,0,0,0,1.331-2.928v-24a3.094,3.094,0,0,0-1.188-2.836,7.9,7.9,0,0,0-2.852-.65v-1.258h16.183v1.258a7.453,7.453,0,0,0-2.918.576,3.044,3.044,0,0,0-1.353,2.907V222.6h11.4v-10.28a3.046,3.046,0,0,0-1.286-2.884,7.583,7.583,0,0,0-2.967-.6v-1.258h16.276v1.258a7.37,7.37,0,0,0-2.871.624,3.022,3.022,0,0,0-1.284,2.861v24a3.056,3.056,0,0,0,1.424,2.951,6.439,6.439,0,0,0,2.731.532v1.258H482.536v-1.258a6.586,6.586,0,0,0,2.92-.581,3.067,3.067,0,0,0,1.332-2.9V224.908h-11.4v11.418a3.055,3.055,0,0,0,1.446,2.974,7.155,7.155,0,0,0,2.825.507v1.258H463.48v-1.257Z" transform="translate(-428.589 -207.583)" fill="#1b75b3"/><path d="M536.044,241.073v-1.258a6.568,6.568,0,0,0,2.919-.581,3.064,3.064,0,0,0,1.333-2.9v-24a3,3,0,0,0-1.376-2.908,7.208,7.208,0,0,0-2.876-.576V207.6H563.6v9.99h-1.168q-.913-4.79-3.094-6.557t-7.952-1.767a5.205,5.205,0,0,0-2.791.472,2.321,2.321,0,0,0-.6,1.875v11.466q4.088.049,5.54-1.537t2.216-5.795h1.215v16.743h-1.215q-.509-4.233-2.088-5.965t-5.663-1.73v12a2.5,2.5,0,0,0,.782,2.142A6.043,6.043,0,0,0,552,239.5a13.725,13.725,0,0,0,7.471-1.839q2.9-1.835,5.141-6.893h1.329L564,241.077H536.044v0Z" transform="translate(-460.695 -207.589)" fill="#1b75b3"/></g><g transform="translate(10 291.471)"><path d="M142.125,745.987a4.837,4.837,0,0,0,3.162-1.028q.808-.857.808-3.5V719.547q0-2.792-.819-3.525a5.9,5.9,0,0,0-3.151-1v-1.258h15.389q6.119,0,9.306,2.055t3.19,7.064a8.948,8.948,0,0,1-1.248,4.585,8.77,8.77,0,0,1-4.124,3.447,14.384,14.384,0,0,1-4.342,1.115q-2.175.2-6.446.193v9.239q0,2.736.888,3.582a5.159,5.159,0,0,0,3.316.943v1.258H142.127v-1.258h0Zm17.422-16.5q2.265-1.5,2.266-6.455a11.739,11.739,0,0,0-1.1-5.47q-1.1-2.08-4.2-2.078a4.371,4.371,0,0,0-2.044.35,1.428,1.428,0,0,0-.618,1.364v13.307q4.274-.075,5.7-1.018Z" transform="translate(-142.125 -713.015)" fill="#1b75b3"/><path d="M196.412,745.987a5.4,5.4,0,0,0,3.317-.943q.886-.822.887-3.582V719.547q0-2.864-1.05-3.732a6.533,6.533,0,0,0-3.152-.792v-1.258H211.8a23.857,23.857,0,0,1,7.753,1.042q5.745,2.1,5.743,7.57a7.6,7.6,0,0,1-3.007,6.363,11.525,11.525,0,0,1-4.871,2.224l10.167,14.1a1.994,1.994,0,0,0,.839.762,3.664,3.664,0,0,0,1.1.231v1.184h-9.98l-11.159-15.48h-.02v9.7q0,2.613.841,3.52t3.363,1v1.258H196.41v-1.258h0ZM215.082,728.8q2.019-1.29,2.02-5.988a11.078,11.078,0,0,0-.769-4.548,4.889,4.889,0,0,0-4.858-2.832,4.266,4.266,0,0,0-2.513.5,2.018,2.018,0,0,0-.594,1.631v12.6q4.7-.072,6.714-1.365Z" transform="translate(-166.144 -713.015)" fill="#1b75b3"/><path d="M290.66,717.257a19.015,19.015,0,0,1,0,25.546,17.376,17.376,0,0,1-24.521-.458A17.319,17.319,0,0,1,261.63,730.3a17.916,17.916,0,0,1,4.717-12.8,17.385,17.385,0,0,1,24.312-.244Zm-4.648,22.113a33.453,33.453,0,0,0,1.074-9.34q0-7.907-2.28-11.925t-6.185-4.016q-5.425,0-7.438,6.7a41.132,41.132,0,0,0,.022,18.579q1.989,6.6,7.413,6.6Q284,745.973,286.011,739.37Z" transform="translate(-195 -712.421)" fill="#1b75b3"/><path d="M335.229,717.837a15.776,15.776,0,0,1,12.166-5.2,16.163,16.163,0,0,1,5.909,1.15,15.316,15.316,0,0,0,3.665,1.145,1.523,1.523,0,0,0,1.237-.553,4.425,4.425,0,0,0,.769-1.693h1.33v11.586h-1.215a27.249,27.249,0,0,0-3.525-5.951q-3.359-4.015-7.613-4.013a7.082,7.082,0,0,0-6.749,4.161q-2.125,4.164-2.124,11.708a29.088,29.088,0,0,0,1.973,11.045q1.971,4.848,7.627,4.85,3.06,0,4.111-1.33a3.561,3.561,0,0,0,.607-2.271v-5.228c0-1.5-.442-2.483-1.33-2.953a9.542,9.542,0,0,0-3.5-.484V732.55h16.392V733.8c-1.65.065-2.745.413-3.281,1.033a5.521,5.521,0,0,0-.808,3.492v6.315a20.706,20.706,0,0,1-5.137,2.03,28.85,28.85,0,0,1-7.941,1.02q-7.96,0-12.727-5.2a17.4,17.4,0,0,1-4.435-12.192,17.819,17.819,0,0,1,4.6-12.465Z" transform="translate(-225.53 -712.517)" fill="#1b75b3"/><path d="M397.473,745.987a5.393,5.393,0,0,0,3.316-.943q.89-.822.89-3.582V719.547q0-2.864-1.052-3.732a6.513,6.513,0,0,0-3.151-.792v-1.258h15.389a23.852,23.852,0,0,1,7.753,1.042q5.746,2.1,5.745,7.57a7.6,7.6,0,0,1-3.009,6.363,11.518,11.518,0,0,1-4.869,2.224l10.165,14.1a2.012,2.012,0,0,0,.841.762,3.652,3.652,0,0,0,1.1.231v1.184h-9.98l-11.159-15.48h-.02v9.7q0,2.613.84,3.52t3.365,1v1.258H397.471v-1.258h0ZM416.145,728.8q2.019-1.29,2.02-5.988a11.042,11.042,0,0,0-.769-4.548,4.888,4.888,0,0,0-4.857-2.832,4.273,4.273,0,0,0-2.513.5,2.019,2.019,0,0,0-.594,1.631v12.6q4.693-.072,6.714-1.365Z" transform="translate(-255.104 -713.015)" fill="#1b75b3"/><path d="M461.482,745.45a3.564,3.564,0,0,0,2.778-1.622,22.832,22.832,0,0,0,1.939-4.163l10.627-27.114h1.331l10.671,26.027a36,36,0,0,0,2.689,5.651,2.789,2.789,0,0,0,2.52,1.221v1.258H478.555v-1.258a10.6,10.6,0,0,0,3.074-.41c.49-.212.734-.74.734-1.6a6.616,6.616,0,0,0-.372-1.765c-.155-.468-.366-1.034-.631-1.693l-1.217-3H469.4q-1.051,2.951-1.355,3.845a10.179,10.179,0,0,0-.632,2.786q0,1.064,1.379,1.546a8.868,8.868,0,0,0,2.452.291v1.258h-9.76V745.45h-.006Zm17.956-10.428-4.6-11.462h-.4l-4.319,11.462Z" transform="translate(-283.426 -712.478)" fill="#1b75b3"/><path d="M524.942,745.986c1.822-.016,3.005-.349,3.552-1a4.507,4.507,0,0,0,.817-2.94V718.506q0-2.019-.937-2.654a7.288,7.288,0,0,0-3.313-.832v-1.258h12.049l9.415,22.935h.4l9.357-22.935h12.057v1.258a6.25,6.25,0,0,0-3.316.929q-.888.733-.888,3.6V741.46q0,2.736.888,3.582a5.162,5.162,0,0,0,3.316.942v1.258h-15.88v-1.258a6.667,6.667,0,0,0,3.2-.735c.711-.445,1.072-1.417,1.072-2.917V718.119h-.349l-11.722,29.126h-1.283L531.533,718.7h-.214v22.4a5.9,5.9,0,0,0,.892,3.62q.884,1.144,3.923,1.265v1.258H524.948v-1.256h-.006Z" transform="translate(-311.504 -713.014)" fill="#1b75b3"/><path d="M607.8,745.986c1.821-.016,3-.349,3.549-1a4.5,4.5,0,0,0,.819-2.94V718.505q0-2.019-.934-2.654a7.325,7.325,0,0,0-3.318-.832v-1.258h12.051l9.412,22.935h.4l9.36-22.936h12.057v1.258a6.245,6.245,0,0,0-3.316.929q-.888.733-.889,3.6v21.915q0,2.736.889,3.582a5.159,5.159,0,0,0,3.316.942v1.258H635.311v-1.258a6.65,6.65,0,0,0,3.2-.735q1.072-.667,1.075-2.917V718.118h-.349l-11.721,29.126h-1.284L614.388,718.7h-.211v22.4a5.9,5.9,0,0,0,.89,3.62q.887,1.144,3.925,1.265v1.258H607.8v-1.256h0Z" transform="translate(-348.164 -713.014)" fill="#1b75b3"/><path d="M690.859,745.987a7.191,7.191,0,0,0,2.92-.507,3.062,3.062,0,0,0,1.448-2.976v-24a3.025,3.025,0,0,0-1.379-2.931,7.574,7.574,0,0,0-2.987-.553v-1.258h16.721v1.258a8.264,8.264,0,0,0-3.083.532,3.028,3.028,0,0,0-1.4,2.954v24a3.043,3.043,0,0,0,1.121,2.783,6.455,6.455,0,0,0,3.362.7v1.258H690.861v-1.26h0Z" transform="translate(-384.914 -713.016)" fill="#1b75b3"/><path d="M726.133,745.987q2.662-.073,3.433-1.051a4.6,4.6,0,0,0,.77-2.894V718.58q-2.2-2.543-2.708-2.988a2.621,2.621,0,0,0-1.4-.569v-1.258h10.138l16.441,20.7h.234V719.909a5.724,5.724,0,0,0-.88-3.592c-.592-.719-1.766-1.147-3.535-1.295v-1.258H758.9v1.258a6.673,6.673,0,0,0-3,1.034c-.507.431-.758,1.4-.758,2.908v29.2h-1.333L732.77,721.674h-.325V741.1a6.3,6.3,0,0,0,.6,3.233c.639,1.025,1.946,1.573,3.926,1.654v1.258H726.137v-1.253h0Z" transform="translate(-400.521 -713.015)" fill="#1b75b3"/><path d="M796.332,717.837a15.771,15.771,0,0,1,12.166-5.2,16.185,16.185,0,0,1,5.912,1.15,15.317,15.317,0,0,0,3.666,1.145,1.534,1.534,0,0,0,1.237-.553,4.416,4.416,0,0,0,.769-1.693h1.333v11.586H820.2a27.332,27.332,0,0,0-3.528-5.951q-3.359-4.015-7.615-4.013a7.081,7.081,0,0,0-6.749,4.161q-2.123,4.164-2.125,11.708a29.133,29.133,0,0,0,1.973,11.045q1.971,4.848,7.627,4.85,3.059,0,4.11-1.33a3.56,3.56,0,0,0,.609-2.271v-5.228c0-1.5-.442-2.483-1.335-2.953a9.53,9.53,0,0,0-3.5-.484V732.55h16.39V733.8c-1.651.065-2.74.413-3.279,1.033a5.522,5.522,0,0,0-.807,3.492v6.315a20.709,20.709,0,0,1-5.137,2.03,28.848,28.848,0,0,1-7.938,1.02q-7.963,0-12.731-5.2a17.4,17.4,0,0,1-4.433-12.192,17.821,17.821,0,0,1,4.6-12.465Z" transform="translate(-429.548 -712.517)" fill="#1b75b3"/><path d="M243.326,834.846a6.75,6.75,0,0,0,2.8-.532,3.055,3.055,0,0,0,1.424-2.956V807.365a3.016,3.016,0,0,0-1.355-2.908,7.169,7.169,0,0,0-2.871-.576v-1.258h16.721v1.258q-2.92.1-3.89.843c-.647.5-.967,1.721-.967,3.682v23.412a2.421,2.421,0,0,0,.827,2.182,6.637,6.637,0,0,0,3.234.535,12.714,12.714,0,0,0,7.253-1.972q2.926-1.969,5.056-7.681h1.4l-1.94,11.224h-27.7v-1.261h0Z" transform="translate(-186.901 -752.332)" fill="#1b75b3"/><path d="M302.946,834.308a3.564,3.564,0,0,0,2.778-1.622,22.783,22.783,0,0,0,1.937-4.163l10.627-27.115h1.33l10.674,26.027a36.1,36.1,0,0,0,2.685,5.651,2.791,2.791,0,0,0,2.522,1.22v1.258H320.016v-1.258a10.574,10.574,0,0,0,3.071-.41c.49-.212.737-.74.737-1.6a6.661,6.661,0,0,0-.374-1.765c-.156-.468-.367-1.034-.632-1.693l-1.217-3H310.864q-1.051,2.951-1.355,3.845a10.228,10.228,0,0,0-.629,2.786q0,1.064,1.377,1.545a8.856,8.856,0,0,0,2.453.29v1.258h-9.762v-1.258h0ZM320.9,823.88l-4.6-11.461h-.4L311.58,823.88Z" transform="translate(-213.281 -751.794)" fill="#1b75b3"/><path d="M367.128,834.846q2.663-.072,3.432-1.05a4.6,4.6,0,0,0,.77-2.894V807.439q-2.2-2.544-2.707-2.988a2.632,2.632,0,0,0-1.4-.569v-1.258h10.136l16.441,20.7h.236V808.769a5.7,5.7,0,0,0-.885-3.592q-.884-1.076-3.53-1.295v-1.258H399.9v1.258a6.674,6.674,0,0,0-3,1.034c-.51.43-.759,1.4-.759,2.907v29.2h-1.33l-21.043-26.487h-.329v19.421a6.262,6.262,0,0,0,.609,3.232q.958,1.538,3.924,1.654V836.1H367.134v-1.253h-.006Z" transform="translate(-241.678 -752.332)" fill="#1b75b3"/><path d="M437.848,806.7a15.773,15.773,0,0,1,12.166-5.2,16.142,16.142,0,0,1,5.908,1.15,15.311,15.311,0,0,0,3.668,1.145,1.525,1.525,0,0,0,1.236-.553,4.416,4.416,0,0,0,.769-1.694h1.331v11.586h-1.215a27.249,27.249,0,0,0-3.525-5.951q-3.36-4.016-7.613-4.013a7.082,7.082,0,0,0-6.749,4.161q-2.125,4.164-2.126,11.708a29.081,29.081,0,0,0,1.975,11.045q1.971,4.848,7.626,4.849,3.06,0,4.111-1.329a3.562,3.562,0,0,0,.607-2.272V826.1c0-1.5-.443-2.484-1.33-2.953a9.537,9.537,0,0,0-3.5-.484v-1.256h16.392v1.256c-1.65.064-2.744.412-3.281,1.032a5.524,5.524,0,0,0-.807,3.492V833.5a20.7,20.7,0,0,1-5.138,2.03,28.822,28.822,0,0,1-7.94,1.021q-7.964,0-12.727-5.2a17.4,17.4,0,0,1-4.435-12.192,17.814,17.814,0,0,1,4.6-12.463Z" transform="translate(-270.934 -751.832)" fill="#1b75b3"/><path d="M516.776,802.622v1.258q-2.779.1-3.714.889c-.621.532-.934,1.742-.934,3.636v16.6a15.6,15.6,0,0,0,.866,5.84,5.907,5.907,0,0,0,6,3.826q5.511,0,7.448-4.235a15.942,15.942,0,0,0,1.074-6.515V808.766q0-2.661-.945-3.666t-3.7-1.223v-1.258h10.508v1.258A6.834,6.834,0,0,0,530.357,805c-.492.442-.734,1.465-.734,3.06v15.846q0,6.313-2.944,9.75t-9.249,3.433q-8.247,0-11.281-5.108a13.555,13.555,0,0,1-1.611-7V808.4q0-2.792-.711-3.516a5.82,5.82,0,0,0-3.21-1.009v-1.258h16.158Z" transform="translate(-300.741 -752.329)" fill="#1b75b3"/><path d="M565.131,834.308a3.577,3.577,0,0,0,2.782-1.622,23.131,23.131,0,0,0,1.94-4.163l10.625-27.115h1.333l10.671,26.027a35.609,35.609,0,0,0,2.69,5.651,2.783,2.783,0,0,0,2.519,1.22v1.258H582.206v-1.258a10.58,10.58,0,0,0,3.073-.41c.49-.212.734-.74.734-1.6a6.752,6.752,0,0,0-.371-1.765c-.158-.468-.367-1.034-.632-1.693l-1.217-3H573.055q-1.055,2.951-1.357,3.845a10.136,10.136,0,0,0-.63,2.786q0,1.064,1.378,1.545a8.825,8.825,0,0,0,2.451.29v1.258h-9.762v-1.258h0Zm17.955-10.427-4.6-11.461h-.4l-4.319,11.461Z" transform="translate(-329.285 -751.794)" fill="#1b75b3"/><path d="M635.678,806.7a15.776,15.776,0,0,1,12.166-5.2,16.187,16.187,0,0,1,5.912,1.15,15.276,15.276,0,0,0,3.665,1.145,1.528,1.528,0,0,0,1.236-.553,4.43,4.43,0,0,0,.771-1.694h1.332v11.586h-1.212a27.244,27.244,0,0,0-3.528-5.951q-3.359-4.016-7.615-4.013a7.082,7.082,0,0,0-6.749,4.161q-2.125,4.164-2.126,11.708a29.07,29.07,0,0,0,1.975,11.045q1.969,4.848,7.624,4.849,3.059,0,4.11-1.329a3.558,3.558,0,0,0,.61-2.272V826.1c0-1.5-.443-2.484-1.332-2.953a9.542,9.542,0,0,0-3.5-.484v-1.256h16.39v1.256c-1.651.064-2.741.412-3.279,1.032a5.527,5.527,0,0,0-.8,3.492V833.5a20.754,20.754,0,0,1-5.141,2.03,28.787,28.787,0,0,1-7.937,1.021q-7.963,0-12.729-5.2a17.392,17.392,0,0,1-4.435-12.192A17.819,17.819,0,0,1,635.678,806.7Z" transform="translate(-358.465 -751.832)" fill="#1b75b3"/><path d="M698.446,836.107v-1.258a6.573,6.573,0,0,0,2.918-.58,3.061,3.061,0,0,0,1.333-2.9v-24a3,3,0,0,0-1.376-2.908,7.175,7.175,0,0,0-2.874-.576v-1.256H726v9.988h-1.166q-.917-4.79-3.1-6.555T713.79,804.3a5.212,5.212,0,0,0-2.791.472,2.321,2.321,0,0,0-.6,1.875v11.466q4.084.048,5.536-1.537t2.217-5.794h1.215v16.742h-1.215q-.51-4.231-2.088-5.962t-5.663-1.728v12a2.494,2.494,0,0,0,.782,2.138,6.042,6.042,0,0,0,3.213.569,13.729,13.729,0,0,0,7.471-1.838q2.9-1.835,5.14-6.9h1.33L726.4,836.112H698.446Z" transform="translate(-388.271 -752.335)" fill="#1b75b3"/></g></g></svg>