<svg xmlns="http://www.w3.org/2000/svg" viewBox="0 0 35.686 50.371"><path d="M77.881,137.046,74.633,100.62h35.686l-3.251,36.42-14.614,4.051Z" transform="translate(-74.633 -90.721)" fill="#e44d26"/><path d="M256,165.291l11.809-3.274,2.778-31.123H256Z" transform="translate(-238.157 -118.017)" fill="#f16529"/><path d="M153.334,185.347h-5.912l-.408-4.575h6.32V176.3h-11.2l.107,1.2,1.1,12.311h10Z" transform="translate(-135.491 -158.96)" fill="#ebebeb"/><path d="M166.207,341.234l-.02.005-4.975-1.343-.318-3.563h-4.485l.626,7.015,9.151,2.54.021-.006Z" transform="translate(-148.364 -303.245)" fill="#ebebeb"/><path d="M108.382,0h2.27V2.243h2.077V0H115V6.793h-2.27V4.518h-2.077V6.793h-2.27V0Z" transform="translate(-105.062)" fill="#ebebeb"/><path d="M187.677,2.253h-2V0h6.269V2.253h-2v4.54h-2.27V2.253Z" transform="translate(-174.753)" fill="#ebebeb"/><path d="M259.511,0h2.367l1.456,2.387L264.789,0h2.368V6.793H264.9V3.426l-1.562,2.415H263.3l-1.563-2.415V6.793h-2.221Z" transform="translate(-241.323)" fill="#ebebeb"/><path d="M348.72,0h2.271V4.547h3.193V6.793H348.72Z" transform="translate(-321.755)" fill="#ebebeb"/><path d="M255.843,268.217v4.467h5.5l-.519,5.794-4.983,1.345v4.648L265,281.933l.067-.755,1.05-11.761.109-1.2H255.843Z" transform="translate(-238.016 -241.83)" fill="#fff"/><path d="M255.843,176.3v4.468h10.791l.09-1,.2-2.265.107-1.2Z" transform="translate(-238.016 -158.96)" fill="#fff"/></svg>