<svg xmlns="http://www.w3.org/2000/svg" viewBox="0 0 36.408 32.533"><g transform="translate(-6.579 -12.624)"><g transform="translate(7.41 13.519)"><circle cx="3.241" cy="3.241" r="3.241" transform="translate(14.132 12.098)" fill="#00d8ff"/><g transform="translate(0 0)"><path d="M17.416,9.4A36.364,36.364,0,0,1,28.858,11.07c3.672,1.264,5.93,3.181,5.93,4.916,0,1.808-2.393,3.844-6.337,5.151a36.514,36.514,0,0,1-11.036,1.5A36.4,36.4,0,0,1,6.155,21.126C2.341,19.822.043,17.76.043,15.986c0-1.721,2.156-3.623,5.777-4.885a36.682,36.682,0,0,1,11.6-1.7Z" transform="translate(-0.043 -0.647)" fill="none" stroke="#00d8ff" stroke-width="1.663" fill-rule="evenodd"/><path d="M12.187,12.077A36.365,36.365,0,0,1,19.353,3C22.283.452,25.071-.547,26.574.32c1.567.9,2.135,3.993,1.3,8.062A36.493,36.493,0,0,1,23.66,18.693a36.385,36.385,0,0,1-6.937,9c-3.035,2.653-5.969,3.613-7.506,2.727-1.491-.859-2.061-3.677-1.346-7.445a36.7,36.7,0,0,1,4.316-10.9Z" transform="translate(-0.55 -0.014)" fill="none" stroke="#00d8ff" stroke-width="1.663" fill-rule="evenodd"/><path d="M12.193,18.705A36.374,36.374,0,0,1,7.909,7.965C7.163,4.153,7.69,1.239,9.192.369c1.565-.906,4.526.145,7.632,2.9a36.511,36.511,0,0,1,6.83,8.8,36.388,36.388,0,0,1,4.331,10.5c.783,3.955.149,6.976-1.386,7.865-1.49.862-4.215-.051-7.122-2.552a36.684,36.684,0,0,1-7.285-9.181Z" transform="translate(-0.551 -0.016)" fill="none" stroke="#00d8ff" stroke-width="1.663" fill-rule="evenodd"/></g></g></g></svg>