<svg xmlns="http://www.w3.org/2000/svg" viewBox="0 0 100.409 100.409"><g transform="translate(-29.774 -330.24)"><rect width="71" height="71" transform="translate(79.979 330.24) rotate(45)" fill="#d091e0"/><rect width="71" height="71" transform="matrix(0.966, 0.259, -0.259, 0.966, 54.876, 336.966)" fill="rgba(235,57,122,0.75)"/><rect width="71" height="72" transform="matrix(0.966, -0.259, 0.259, 0.966, 36.5, 354.376)" fill="rgba(79,214,255,0.75)"/><rect width="72" height="72" transform="translate(44 344)" fill="rgba(22,226,104,0.75)"/><g transform="translate(-1 1)"><path d="M24.5,0,49,18H0Z" transform="translate(56 359)" fill="#fff"/><path d="M0,0H7V12H0Z" transform="translate(61.5 362)" fill="#fff"/><path d="M978.627-848H970v-21h42v21h-8.627a13.007,13.007,0,0,0,.627-4,13.015,13.015,0,0,0-13-13,13.014,13.014,0,0,0-13,13,13.009,13.009,0,0,0,.626,4Z" transform="translate(-910 1246)" fill="#fff"/></g></g></svg>