<svg xmlns="http://www.w3.org/2000/svg" xmlns:xlink="http://www.w3.org/1999/xlink" viewBox="0 0 88 33.862"><defs><linearGradient id="a" x1="0.5" x2="0.5" y2="1" gradientUnits="objectBoundingBox"><stop offset="0" stop-color="#8cbf2e"/><stop offset="1" stop-color="#1c4f09"/></linearGradient><linearGradient id="b" x1="0.5" x2="0.5" y2="1" gradientUnits="objectBoundingBox"><stop offset="0" stop-color="#f9c"/><stop offset="1" stop-color="#e05bad"/></linearGradient><linearGradient id="c" x1="0.5" x2="0.5" y2="1" gradientUnits="objectBoundingBox"><stop offset="0" stop-color="#9c3"/><stop offset="1" stop-color="#030"/></linearGradient><radialGradient id="d" cx="0.125" cy="0.93" r="0.762" gradientTransform="matrix(0.652, -0.924, 1.24, 0.301, -1.11, 0.766)" gradientUnits="objectBoundingBox"><stop offset="0" stop-color="#c39"/><stop offset="1" stop-color="#f9c"/></radialGradient></defs><g transform="translate(-42 -352.217)"><rect width="43" height="28" transform="translate(42 358)" fill="url(#a)"/><rect width="45" height="28" transform="translate(85 358)" fill="url(#b)"/><g transform="translate(-43 58.912)"><g transform="translate(115.361 293.305)"><path d="M501.609,215.754c-1.706-1.826-3.989-2.966-5.982-4.445a11.618,11.618,0,0,1-4.233-5.436c-1.87-5.49-.233-11.227,3.7-15.465a7.36,7.36,0,0,0,2.29-4.262c.565,1.216.819,2.572,1.327,3.814a8.627,8.627,0,0,0,1.952,2.969,31.6,31.6,0,0,1,2.559,2.383,16.184,16.184,0,0,1,3.455,7.353C507.43,206.815,502.55,216.764,501.609,215.754Z" transform="translate(-490.622 -186.147)" fill="url(#c)"/><path d="M502.152,206.749a15.149,15.149,0,0,0-.806-2.084c-.321-.679-.706-1.318-1.051-1.949a7.758,7.758,0,0,1-1.289-3.88,10.288,10.288,0,0,1,.853-4.14,7.572,7.572,0,0,0-1.649,4.122,6.071,6.071,0,0,0,.246,2.292,11.279,11.279,0,0,0,.937,2.07,29.813,29.813,0,0,1,2,3.818,22.287,22.287,0,0,1,1.266,4.121A11.553,11.553,0,0,0,502.152,206.749Z" transform="translate(-492.321 -188.067)" fill="#fff"/><g transform="translate(8.642 6.599)"><path d="M506.4,222.56a11.5,11.5,0,0,1-.738-7.056,7.754,7.754,0,0,1,2.269-4.176c3.146-2.349,7.443-3.859,9.687-6.851a3.572,3.572,0,0,0,.709-3.513c-.455-1.12-1.981-2.108-2.1-3.294a2.725,2.725,0,0,1,.087-1.452c.175-.233.26-.543-.167-.523s-.38.5-.942.843c-2.244,1.372-4.841,1.086-7.507,1.288-2.308.172-4.615.828-5.089,2.706-.4,1.586.634,3.955.775,4.735A28.689,28.689,0,0,1,503.93,210c.013,1.511-.259,3.017-.226,4.53a19.838,19.838,0,0,0,1.26,8.424Z" transform="translate(-502.521 -195.693)" fill="url(#d)"/><g transform="translate(0.303 0.844)"><path d="M507.823,198.85a8.555,8.555,0,0,0-1.577.121,6.9,6.9,0,0,0-.77.175,4.426,4.426,0,0,0-.723.274,3.627,3.627,0,0,0-.62.388,3.491,3.491,0,0,0-.5.471,2.87,2.87,0,0,0-.6,1.091c-.013.048-.029.1-.04.146l-.029.147c-.023.1-.028.2-.041.294,0,.049-.006.1-.008.147a1.186,1.186,0,0,0,0,.147,2.622,2.622,0,0,0,.011.293,6.433,6.433,0,0,0,.181,1.157c.05.19.1.378.167.565s.127.373.2.558c.034.092.071.185.108.277s.074.184.112.275c.078.184.155.365.217.551l.035,0a3.549,3.549,0,0,0-.078-.578q-.028-.143-.06-.285c-.021-.095-.042-.19-.065-.284l-.134-.565-.13-.564c-.084-.375-.17-.749-.22-1.126a4.624,4.624,0,0,1-.029-1.131,1.831,1.831,0,0,1,.508-1.065,2.45,2.45,0,0,1,.533-.413,4.819,4.819,0,0,1,.642-.31q.335-.135.688-.245c.236-.074.478-.137.723-.195q.185-.042.372-.078l.377-.073c.253-.046.508-.088.765-.133Z" transform="translate(-502.912 -197.245)" fill="#fff"/><path d="M521.908,201.553a1.261,1.261,0,0,0-.04-.129l-.043-.129a2.028,2.028,0,0,0-.115-.254,3.592,3.592,0,0,0-.31-.475c-.233-.3-.488-.588-.734-.873a7.245,7.245,0,0,1-.672-.873,2.339,2.339,0,0,1-.364-.955,7.023,7.023,0,0,1-.1-1.022v-.063l-.047.049a1.787,1.787,0,0,1-.24.2,1.776,1.776,0,0,0,.233-.147,3.461,3.461,0,0,0-.046.473q-.008.26,0,.519a2.016,2.016,0,0,0,.082.525,2.7,2.7,0,0,0,.213.5,15.068,15.068,0,0,0,1.366,1.787,3.837,3.837,0,0,1,.3.444,1.871,1.871,0,0,1,.111.233c.027.078.063.155.086.239a2.765,2.765,0,0,1,.113.991,2.516,2.516,0,0,1-.028.251c0,.042-.015.084-.022.126l-.024.126a4.006,4.006,0,0,1-.155.5,4.742,4.742,0,0,1-.216.489c-.082.161-.174.32-.271.479a4.547,4.547,0,0,0,.644-.93,3.876,3.876,0,0,0,.214-.5,3,3,0,0,0,.123-.521A2.6,2.6,0,0,0,521.908,201.553Z" transform="translate(-506.581 -196.781)" fill="#fff"/><path d="M506.5,227.76c-.115-.271-.219-.547-.31-.826s-.174-.559-.249-.841c-.036-.141-.069-.283-.1-.424l-.088-.427c-.028-.143-.05-.285-.078-.428s-.04-.287-.06-.43-.029-.288-.045-.431l-.022-.216-.012-.216c-.023-.288-.017-.578-.023-.868a15.021,15.021,0,0,1,.136-1.743c-.078.287-.167.574-.219.865-.067.29-.1.582-.141.875s-.052.586-.055.879l-.006.22v.22c.005.147,0,.294.019.44s.019.293.035.44.032.292.051.439.046.292.071.437.055.291.088.435a11.054,11.054,0,0,0,.474,1.546l-.085.023c-.191-.584-.376-1.169-.533-1.759q-.266-.982-.437-1.976l-.042-.249-.036-.249c-.026-.166-.042-.333-.062-.5-.037-.333-.067-.668-.084-1s-.033-.672-.047-1.008l-.029-.506c-.012-.168-.022-.337-.036-.5-.016.169-.028.338-.042.506l-.035.506q-.04.506-.061,1.013c-.012.339-.009.678,0,1.017.008.169.016.339.031.508l.021.254.027.254a15.863,15.863,0,0,0,.363,2.012c.163.665.36,1.324.581,1.978l.066.195.257-.071.563-.155.224-.062Z" transform="translate(-503.252 -201.99)" fill="#fff"/><path d="M509.9,208.4a.474.474,0,0,0-.009-.109l-.016-.109a3.2,3.2,0,0,0-.26-.84,4.642,4.642,0,0,0-.465-.775,7.453,7.453,0,0,0-.6-.7c-.218-.223-.446-.44-.685-.647s-.486-.406-.727-.6-.475-.388-.69-.592a2.11,2.11,0,0,1-.155-.155c-.047-.054-.1-.1-.15-.155s-.1-.1-.139-.16-.092-.108-.127-.164a2.249,2.249,0,0,1-.354-.706,1.861,1.861,0,0,1-.05-.769,1.778,1.778,0,0,1,.3-.765,1.873,1.873,0,0,0-.639,1.577,2.159,2.159,0,0,0,.265.829.966.966,0,0,0,.055.1l.06.1c.039.065.086.126.13.188s.093.122.141.182c.025.029.048.06.074.089l.078.087a9.3,9.3,0,0,0,.662.658c.229.21.46.413.677.62s.43.413.626.627a7.232,7.232,0,0,1,.543.654,4.288,4.288,0,0,1,.426.688,2.97,2.97,0,0,1,.254.72l.02.092c.006.03.008.061.012.092.006.061.017.123.019.185a2.269,2.269,0,0,1-.013.37,2.51,2.51,0,0,1-.209.734c-.027.06-.057.118-.09.181s-.064.125-.1.186-.067.124-.1.185-.07.123-.106.185q-.217.368-.465.729a15.607,15.607,0,0,1-1.09,1.414,9.648,9.648,0,0,0,1.427-1.271q.316-.343.593-.7c.094-.12.181-.243.267-.366.043-.061.085-.124.126-.186s.084-.129.122-.195a3.014,3.014,0,0,0,.2-.411,2.7,2.7,0,0,0,.124-.428,2.27,2.27,0,0,0,.047-.438A1.275,1.275,0,0,0,509.9,208.4Z" transform="translate(-503.41 -197.762)" fill="#fff"/><path d="M518,205.89a5.3,5.3,0,0,1-.885.543,6.684,6.684,0,0,1-1.008.394c-.174.054-.354.1-.534.143l-.273.059c-.092.018-.185.032-.277.049a10.659,10.659,0,0,1-1.13.126l-.143.009-.071,0h-.072l-.288.009c-.1.005-.192,0-.288,0h-.289c-.775-.008-1.551-.067-2.333-.131a11.789,11.789,0,0,0,2.3.419,11.083,11.083,0,0,0,1.2.029l.155,0a1.067,1.067,0,0,0,.155-.008l.3-.023.078-.006.078-.009.151-.019.151-.019c.05-.006.1-.016.15-.024.1-.019.2-.034.3-.054l.295-.067c.194-.051.388-.1.574-.17a5.573,5.573,0,0,0,1.051-.482,4.006,4.006,0,0,0,.844-.66,2.811,2.811,0,0,0,.315-.388q.067-.1.124-.2a1.459,1.459,0,0,0,.092-.211,3.914,3.914,0,0,1-.725.695Z" transform="translate(-504.596 -198.671)" fill="#fff"/><path d="M513.606,201.4a.63.63,0,0,0-.706-.02.455.455,0,0,0-.055.043l-.005.005a5.223,5.223,0,0,0-.864,1.057,7.957,7.957,0,0,0-.579,1.106,8.658,8.658,0,0,0-.4,1.13,4.6,4.6,0,0,0-.191,1.147,4.939,4.939,0,0,1,.431-1.1,9.506,9.506,0,0,1,.62-1.046,8.663,8.663,0,0,1,.766-.974,5.293,5.293,0,0,1,.939-.827.31.31,0,0,0,.042-.521Z" transform="translate(-504.686 -197.793)" fill="#fff"/></g></g></g></g><text transform="translate(86.5 378)" fill="#fff" font-size="20" font-family="DapiferStencil-Book, DapiferStencil"><tspan x="-39.39" y="0" xml:space="preserve">Lily  Law</tspan></text></g></svg>