<svg xmlns="http://www.w3.org/2000/svg" width="60.407" height="60.74" viewBox="0 0 60.407 60.74"><g transform="translate(0.006 0)"><g transform="translate(-1)"><path d="M31.32,48.65c-10.09,0-14.7-5.14-14.7-8.91a3.27,3.27,0,0,1,3.45-3.27c4.32,0,3.19,6.48,11.25,6.48,4.12,0,6.54-2.48,6.54-4.81,0-1.4-.8-3-3.52-3.64l-9-2.27c-7.23-1.84-8.49-5.86-8.49-9.59,0-7.74,7.08-10.54,13.82-10.54,6.21,0,13.59,3.43,13.59,8.07,0,2-1.67,3.07-3.61,3.07-3.69,0-3.07-5.18-10.49-5.18-3.69,0-5.63,1.73-5.63,4.15S27.4,25.45,29.92,26l6.64,1.5c7.28,1.64,9.22,5.91,9.22,10,0,6.29-4.87,11.15-14.47,11.15M59.18,35.34a28.866,28.866,0,0,0,.43-5A28.42,28.42,0,0,0,26.27,2.23,16.72,16.72,0,0,0,17.89,0,17,17,0,0,0,3.22,25.41a28.44,28.44,0,0,0,32.92,33.1,16.71,16.71,0,0,0,8.37,2.23,17,17,0,0,0,14.67-25.4" fill="#0078d7"/></g></g></svg>