<svg xmlns="http://www.w3.org/2000/svg" viewBox="0 0 123 123"><g transform="translate(38 9.638)"><rect width="123" height="123" transform="translate(-38 -9.638)" fill="#fff"/><g transform="translate(-26.785 1.577)"><path d="M0,0H100.937V100.937H0V0Z" fill="#fff" fill-rule="evenodd"/><path d="M48.428,13.678a49.16,49.16,0,0,1,61.595,46.454,49.3,49.3,0,0,1-22.065,42.135c-15.493,10.422-36.924,10.821-52.745.915A49.253,49.253,0,0,1,12.091,55.508c1.948-19.694,17.159-37.065,36.337-41.83Z" transform="translate(-10.401 -10.767)" fill="#010101" fill-rule="evenodd"/><path d="M103.239,76.748c24.037-9.624,53.52,8.145,56.008,33.919,3.873,23.192-15.375,46.759-38.872,47.44-22.347,2.23-43.943-16.713-44.576-39.154-1.667-18.169,10.3-36.2,27.441-42.206Z" transform="translate(-67.16 -65.785)" fill="#fff" fill-rule="evenodd"/><path d="M343.256,218.385c10.774-8.8,21.314-17.91,32.323-26.455-5.775,8.873-11.713,17.629-17.488,26.5-4.953.023-9.906.023-14.835-.047h0Z" transform="translate(-304.759 -170.405)" fill="#010101" fill-rule="evenodd"/><path d="M286.023,471.558c4.976,0,9.929,0,14.882.07-10.845,8.756-21.338,17.934-32.37,26.455,5.775-8.873,11.713-17.652,17.488-26.525Z" transform="translate(-238.418 -418.672)" fill="#010101" fill-rule="evenodd"/></g></g></svg>